<mxfile host="app.diagrams.net" agent="Mozilla/5.0 (Windows NT 10.0; Win64; x64) AppleWebKit/537.36 (KHTML, like Gecko) Chrome/123.0.0.0 Safari/537.36" version="26.0.6">
  <diagram name="Page-1" id="0783ab3e-0a74-02c8-0abd-f7b4e66b4bec">
    <mxGraphModel dx="1434" dy="746" grid="1" gridSize="10" guides="1" tooltips="1" connect="1" arrows="1" fold="1" page="1" pageScale="1" pageWidth="850" pageHeight="1100" background="none" math="0" shadow="0">
      <root>
        <mxCell id="0" />
        <mxCell id="1" parent="0" />
        <mxCell id="y_FQadpQETS9sYgj2sYE-77" value="Pool" style="swimlane;childLayout=stackLayout;resizeParent=1;resizeParentMax=0;horizontal=1;startSize=20;horizontalStack=0;html=1;" vertex="1" parent="1">
          <mxGeometry x="250" y="260" width="720" height="880" as="geometry" />
        </mxCell>
        <mxCell id="y_FQadpQETS9sYgj2sYE-78" value="支付下单流程" style="swimlane;startSize=20;horizontal=0;html=1;" vertex="1" parent="y_FQadpQETS9sYgj2sYE-77">
          <mxGeometry y="20" width="720" height="280" as="geometry" />
        </mxCell>
        <mxCell id="y_FQadpQETS9sYgj2sYE-84" value="前端" style="swimlane;" vertex="1" parent="y_FQadpQETS9sYgj2sYE-78">
          <mxGeometry x="20" width="140" height="280" as="geometry" />
        </mxCell>
        <mxCell id="y_FQadpQETS9sYgj2sYE-108" value="" style="edgeStyle=orthogonalEdgeStyle;rounded=0;orthogonalLoop=1;jettySize=auto;html=1;" edge="1" parent="y_FQadpQETS9sYgj2sYE-84" source="y_FQadpQETS9sYgj2sYE-106" target="y_FQadpQETS9sYgj2sYE-107">
          <mxGeometry relative="1" as="geometry" />
        </mxCell>
        <mxCell id="y_FQadpQETS9sYgj2sYE-106" value="开始" style="rounded=1;whiteSpace=wrap;html=1;" vertex="1" parent="y_FQadpQETS9sYgj2sYE-84">
          <mxGeometry x="25" y="30" width="90" height="40" as="geometry" />
        </mxCell>
        <mxCell id="y_FQadpQETS9sYgj2sYE-107" value="发起拼团" style="rounded=0;whiteSpace=wrap;html=1;" vertex="1" parent="y_FQadpQETS9sYgj2sYE-84">
          <mxGeometry x="25" y="115" width="90" height="50" as="geometry" />
        </mxCell>
        <mxCell id="y_FQadpQETS9sYgj2sYE-85" value="后端" style="swimlane;" vertex="1" parent="y_FQadpQETS9sYgj2sYE-78">
          <mxGeometry x="160" width="180" height="280" as="geometry" />
        </mxCell>
        <mxCell id="y_FQadpQETS9sYgj2sYE-109" value="拼团详情" style="rounded=0;whiteSpace=wrap;html=1;" vertex="1" parent="y_FQadpQETS9sYgj2sYE-85">
          <mxGeometry x="40" y="115" width="90" height="50" as="geometry" />
        </mxCell>
        <mxCell id="y_FQadpQETS9sYgj2sYE-89" value="商品服务" style="swimlane;" vertex="1" parent="y_FQadpQETS9sYgj2sYE-78">
          <mxGeometry x="340" width="170" height="280" as="geometry" />
        </mxCell>
        <mxCell id="y_FQadpQETS9sYgj2sYE-121" value="拼团详情" style="rounded=0;whiteSpace=wrap;html=1;" vertex="1" parent="y_FQadpQETS9sYgj2sYE-89">
          <mxGeometry x="30" y="115" width="90" height="50" as="geometry" />
        </mxCell>
        <mxCell id="y_FQadpQETS9sYgj2sYE-91" value="admin" style="swimlane;" vertex="1" parent="y_FQadpQETS9sYgj2sYE-78">
          <mxGeometry x="510" width="210" height="280" as="geometry" />
        </mxCell>
        <mxCell id="y_FQadpQETS9sYgj2sYE-127" value="拼团详情" style="rounded=0;whiteSpace=wrap;html=1;" vertex="1" parent="y_FQadpQETS9sYgj2sYE-91">
          <mxGeometry x="60" y="115" width="90" height="50" as="geometry" />
        </mxCell>
        <mxCell id="y_FQadpQETS9sYgj2sYE-110" value="" style="edgeStyle=orthogonalEdgeStyle;rounded=0;orthogonalLoop=1;jettySize=auto;html=1;" edge="1" parent="y_FQadpQETS9sYgj2sYE-78" source="y_FQadpQETS9sYgj2sYE-107" target="y_FQadpQETS9sYgj2sYE-109">
          <mxGeometry relative="1" as="geometry" />
        </mxCell>
        <mxCell id="y_FQadpQETS9sYgj2sYE-122" value="" style="edgeStyle=orthogonalEdgeStyle;rounded=0;orthogonalLoop=1;jettySize=auto;html=1;" edge="1" parent="y_FQadpQETS9sYgj2sYE-78" source="y_FQadpQETS9sYgj2sYE-109" target="y_FQadpQETS9sYgj2sYE-121">
          <mxGeometry relative="1" as="geometry" />
        </mxCell>
        <mxCell id="y_FQadpQETS9sYgj2sYE-128" value="" style="edgeStyle=orthogonalEdgeStyle;rounded=0;orthogonalLoop=1;jettySize=auto;html=1;" edge="1" parent="y_FQadpQETS9sYgj2sYE-78" source="y_FQadpQETS9sYgj2sYE-121" target="y_FQadpQETS9sYgj2sYE-127">
          <mxGeometry relative="1" as="geometry" />
        </mxCell>
        <mxCell id="y_FQadpQETS9sYgj2sYE-79" value="下单成功" style="swimlane;startSize=20;horizontal=0;html=1;" vertex="1" parent="y_FQadpQETS9sYgj2sYE-77">
          <mxGeometry y="300" width="720" height="280" as="geometry" />
        </mxCell>
        <mxCell id="y_FQadpQETS9sYgj2sYE-86" value="" style="swimlane;startSize=0;" vertex="1" parent="y_FQadpQETS9sYgj2sYE-79">
          <mxGeometry x="20" width="140" height="280" as="geometry">
            <mxRectangle x="20" width="90" height="30" as="alternateBounds" />
          </mxGeometry>
        </mxCell>
        <mxCell id="y_FQadpQETS9sYgj2sYE-94" value="" style="swimlane;startSize=0;" vertex="1" parent="y_FQadpQETS9sYgj2sYE-79">
          <mxGeometry x="160" width="180" height="280" as="geometry" />
        </mxCell>
        <mxCell id="y_FQadpQETS9sYgj2sYE-96" value="" style="swimlane;startSize=0;" vertex="1" parent="y_FQadpQETS9sYgj2sYE-79">
          <mxGeometry x="340" width="380" height="280" as="geometry" />
        </mxCell>
        <mxCell id="y_FQadpQETS9sYgj2sYE-98" value="" style="swimlane;startSize=0;" vertex="1" parent="y_FQadpQETS9sYgj2sYE-96">
          <mxGeometry x="170" width="210" height="280" as="geometry" />
        </mxCell>
        <mxCell id="y_FQadpQETS9sYgj2sYE-80" value="下单失败" style="swimlane;startSize=20;horizontal=0;html=1;" vertex="1" parent="y_FQadpQETS9sYgj2sYE-77">
          <mxGeometry y="580" width="720" height="300" as="geometry" />
        </mxCell>
        <mxCell id="y_FQadpQETS9sYgj2sYE-100" value="" style="swimlane;startSize=0;" vertex="1" parent="y_FQadpQETS9sYgj2sYE-80">
          <mxGeometry x="20" width="140" height="300" as="geometry" />
        </mxCell>
        <mxCell id="y_FQadpQETS9sYgj2sYE-101" value="" style="swimlane;startSize=0;" vertex="1" parent="y_FQadpQETS9sYgj2sYE-80">
          <mxGeometry x="160" width="180" height="300" as="geometry" />
        </mxCell>
        <mxCell id="y_FQadpQETS9sYgj2sYE-102" value="" style="swimlane;startSize=0;" vertex="1" parent="y_FQadpQETS9sYgj2sYE-80">
          <mxGeometry x="340" width="170" height="300" as="geometry" />
        </mxCell>
        <mxCell id="y_FQadpQETS9sYgj2sYE-104" value="" style="swimlane;startSize=0;" vertex="1" parent="y_FQadpQETS9sYgj2sYE-80">
          <mxGeometry x="510" width="210" height="300" as="geometry" />
        </mxCell>
      </root>
    </mxGraphModel>
  </diagram>
</mxfile>
